<?xml version="1.0" encoding="UTF-8" standalone="no"?>
<!-- Created with Inkscape (http://www.inkscape.org/) -->

<svg
   width="1867"
   height="428"
   viewBox="0 0 493.97707 113.24167"
   version="1.1"
   id="svg1"
   inkscape:version="1.4 (e7c3feb100, 2024-10-09)"
   sodipodi:docname="Ren-Net-NewYear.svg"
   xmlns:inkscape="http://www.inkscape.org/namespaces/inkscape"
   xmlns:sodipodi="http://sodipodi.sourceforge.net/DTD/sodipodi-0.dtd"
   xmlns="http://www.w3.org/2000/svg"
   xmlns:svg="http://www.w3.org/2000/svg">
  <sodipodi:namedview
     id="namedview1"
     pagecolor="#000000"
     bordercolor="#000000"
     borderopacity="0.25"
     inkscape:showpageshadow="2"
     inkscape:pageopacity="0.0"
     inkscape:pagecheckerboard="0"
     inkscape:deskcolor="#d1d1d1"
     inkscape:document-units="mm"
     inkscape:zoom="0.6148902"
     inkscape:cx="934.31315"
     inkscape:cy="556.19686"
     inkscape:window-width="1920"
     inkscape:window-height="1011"
     inkscape:window-x="0"
     inkscape:window-y="0"
     inkscape:window-maximized="1"
     inkscape:current-layer="layer1" />
  <defs
     id="defs1" />
  <g
     inkscape:label="Layer 1"
     inkscape:groupmode="layer"
     id="layer1">
    <text
       xml:space="preserve"
       style="font-size:14.1111px;font-family:Cantarell;-inkscape-font-specification:Cantarell;text-align:start;writing-mode:lr-tb;direction:ltr;text-anchor:start;fill:#ffffff;stroke:#000000;stroke-width:0.264583"
       x="36.3825"
       y="48.262501"
       id="text1"><tspan
         sodipodi:role="line"
         id="tspan1"
         style="stroke-width:0.264583"
         x="36.3825"
         y="48.262501" /></text>
    <text
       xml:space="preserve"
       style="font-size:14.1111px;font-family:Cantarell;-inkscape-font-specification:Cantarell;text-align:start;writing-mode:lr-tb;direction:ltr;text-anchor:start;fill:#000000;stroke:#000000;stroke-width:0.264583"
       x="58.657501"
       y="77.220001"
       id="text2"><tspan
         sodipodi:role="line"
         id="tspan2"
         style="stroke-width:0.264583" /></text>
    <text
       xml:space="preserve"
       style="font-size:146.038px;font-family:Cantarell;-inkscape-font-specification:Cantarell;text-align:start;writing-mode:lr-tb;direction:ltr;text-anchor:start;fill:#000000;stroke:#000000;stroke-width:2.73823"
       x="-11.399329"
       y="102.60535"
       id="text3"
       transform="scale(0.91670265,1.0908663)"><tspan
         sodipodi:role="line"
         id="tspan3"
         style="stroke-width:2.73823"
         x="-11.399329"
         y="102.60535">Ren-Net</tspan></text>
    <path
       style="fill:#ffffff;stroke:#000000;stroke-width:1.62631"
       d="M 2.4394599,213.73993 V -0.23876751 L 74.403528,0.41923957 C 141.9466,1.036823 147.20445,1.2954288 159.98974,4.628775 c 56.12232,14.632056 87.43152,61.278831 84.21901,125.475755 -1.1912,23.80431 -5.45876,40.50443 -15.61748,61.11546 -9.22502,18.71663 -23.24228,35.22561 -38.63418,45.5018 -5.19038,3.46529 -10.01457,6.75653 -10.72041,7.31388 -0.70585,0.55735 18.83094,41.93106 43.41509,91.94158 l 44.69845,90.92824 -28.65832,0.44526 c -15.76208,0.24491 -29.20756,-0.12101 -29.87885,-0.81315 -0.67129,-0.69212 -19.17814,-38.58216 -41.12633,-84.20006 l -39.90581,-82.94163 -37.462975,-0.43655 -37.46297,-0.43655 v 84.59791 84.59792 H 27.647212 2.4394599 Z M 154.08712,201.91154 c 5.32578,-2.12657 13.16466,-7.22197 18.22389,-11.84582 14.87134,-13.59156 21.15498,-31.50701 21.0307,-59.96119 -0.16185,-37.0546 -14.81013,-61.115767 -43.7215,-71.816714 -8.98353,-3.325067 -13.20997,-3.661021 -53.261543,-4.233697 L 52.854965,53.432084 v 76.667606 76.66762 l 45.943162,-0.56201 c 43.399673,-0.53087 46.460563,-0.76859 55.288993,-4.29376 z"
       id="path1"
       transform="scale(0.26458333)" />
    <path
       style="fill:#ffffff;stroke:#000000;stroke-width:1.62631"
       d="m 405.7635,432.61636 c -31.01161,-4.97042 -56.27784,-19.01979 -74.61445,-41.48962 -21.5664,-26.42763 -32.00583,-58.08471 -33.78697,-102.45732 -2.39298,-59.61525 13.91804,-107.45231 47.25281,-138.58331 34.90215,-32.59475 86.04891,-37.2442 124.20639,-11.29085 24.5,16.66402 41.07327,44.72603 47.69409,80.75613 2.11532,11.5114 2.5521,54.47595 0.69134,68.00527 l -1.15958,8.43114 h -84.37468 -84.37467 l 0.92351,5.2855 c 7.45089,42.64344 25.78192,68.27037 56.86034,79.49128 7.53186,2.71938 13.5192,3.49796 27.51593,3.5781 20.9758,0.12009 34.25356,-2.8036 53.73145,-11.83143 l 13.07378,-6.05956 5.39449,20.90794 c 3.9691,15.38345 4.92807,21.46993 3.62933,23.03481 -2.28683,2.75547 -17.73764,10.30373 -29.33007,14.32875 -21.61023,7.50334 -54.00814,10.99049 -73.33304,7.89317 z m 66.67857,-190.03653 c 0,-10.61621 -5.43396,-31.191 -10.88097,-41.19895 -11.86667,-21.80298 -37.11252,-32.74512 -63.1497,-27.37055 -19.49179,4.02348 -31.67974,13.92357 -40.73674,33.08984 -5.21662,11.03933 -10.4582,30.78214 -10.4582,39.3916 v 3.95945 h 62.61281 62.6128 z"
       id="path2"
       transform="scale(0.26458333)" />
    <path
       style="fill:#ffffff;stroke:#000000;stroke-width:1.62631"
       d="M 579.77831,278.04341 V 128.36818 l 17.349,0.4616 17.349,0.4616 3.99078,10.90385 3.99077,10.90385 9.15347,-6.20637 c 20.34481,-13.79448 40.21766,-20.96825 62.14531,-22.43341 46.51541,-3.10807 82.66621,24.52396 96.17346,73.51065 3.50567,12.71401 3.59996,15.50238 4.1383,122.37957 l 0.55088,109.36912 h -24.47884 -24.47886 v -98.98273 c 0,-58.93633 -0.65548,-102.43905 -1.62014,-107.52572 -2.34512,-12.36576 -9.12979,-26.4023 -15.99433,-33.09004 -20.42523,-19.89917 -62.11291,-18.4897 -91.51604,3.09418 l -7.96356,5.84579 v 115.32926 115.32926 h -24.3946 -24.3946 z"
       id="path3"
       transform="scale(0.26458333)" />
    <path
       style="fill:#ffffff;stroke:#000000;stroke-width:1.62631"
       d="M 1085.5597,213.82 V -0.07864481 l 26.9902,0.445899 26.9903,0.44589912 95.3893,168.68452669 c 52.4641,92.77648 95.9382,168.70467 96.609,168.72931 0.6709,0.0246 1.2198,-76.06636 1.2198,-169.0911 V 0 h 23.5814 23.5815 v 213.85932 213.85932 l -26.4275,-0.0311 -26.4275,-0.0311 -96.7652,-169.51139 -96.7653,-169.511399 -0.4141,169.542469 -0.4141,169.54246 h -23.5739 -23.5739 z"
       id="path4"
       transform="scale(0.26458333)" />
    <path
       style="fill:#ffffff;stroke:#000000;stroke-width:1.62631"
       d="M 857.87674,270.78005 V 245.5723 h 77.24956 77.2496 v 25.20775 25.20775 h -77.2496 -77.24956 z"
       id="path5"
       transform="scale(0.26458333)" />
    <path
       style="fill:#ffffff;stroke:#000000;stroke-width:1.62631"
       d="m 1553.1687,432.52403 c -67.5768,-10.61757 -108.1427,-68.02038 -108.1857,-153.08819 -0.048,-95.13953 52.3234,-161.61317 123.6849,-156.98986 44.2672,2.86795 77.8845,32.19752 91.7513,80.04886 6.4986,22.42532 7.4293,42.5107 4.2381,91.46008 -0.1042,1.59855 -18.201,2.03288 -84.7004,2.03288 -46.5124,0 -84.568,0.31808 -84.568,0.70683 0,3.88147 5.6071,25.54801 8.8218,34.0888 17.2977,45.95573 58.5568,64.01149 111.3576,48.73218 7.695,-2.22675 17.8333,-6.12669 22.5296,-8.66651 4.6962,-2.5398 8.8562,-4.10396 9.2443,-3.4759 1.8653,3.01807 10.6443,41.19396 9.7907,42.57513 -1.3849,2.24081 -19.3996,11.14056 -30.0058,14.8237 -21.7564,7.55517 -53.8207,10.91602 -73.9584,7.752 z m 67.4176,-188.98461 c -0.086,-20.97997 -9.8711,-45.44812 -22.8382,-57.10668 -10.9884,-9.87953 -21.2282,-13.26007 -39.7464,-13.12179 -15.8151,0.1181 -24.6825,2.9216 -35.6144,11.25982 -12.4952,9.53053 -23.801,33.4972 -26.2831,55.71603 l -1.1354,10.16442 h 62.8229 62.8228 z"
       id="path6"
       transform="scale(0.26458333)" />
    <path
       style="fill:#ffffff;stroke:#000000;stroke-width:1.62631"
       d="m 1795.8859,428.44238 c -20.7492,-5.02979 -37.9789,-18.48112 -47.9913,-37.467 -9.9325,-18.83439 -10.1354,-21.27466 -10.1619,-122.22821 l -0.024,-91.47975 h -17.0762 -17.0762 v -24.3946 -24.3946 h 17.0762 17.0762 V 85.381097 42.283972 h 23.5815 23.5814 v 43.097125 43.097123 h 33.3393 33.3393 v 24.3946 24.3946 h -33.4179 -33.4179 l 0.4852,87.53221 0.4852,87.53222 4.9038,9.58543 c 3.7538,7.33754 6.7758,10.74231 12.8864,14.51853 7.2082,4.45455 9.2566,4.92535 21.117,4.85334 9.7749,-0.0593 15.0904,-0.96305 20.7808,-3.53293 l 7.6463,-3.45318 2.4065,8.41186 c 1.3236,4.62651 3.5931,13.16879 5.0433,18.98283 1.4502,5.81405 3.0186,11.8679 3.4853,13.45301 1.7173,5.8331 -30.7565,15.99028 -50.1471,15.68503 -4.7337,-0.0745 -12.7981,-1.15156 -17.9211,-2.39339 z"
       id="path7"
       transform="scale(0.26458333)" />
  </g>
</svg>
