<?xml version="1.0" encoding="UTF-8" standalone="no"?>
<!-- Created with Inkscape (http://www.inkscape.org/) -->

<svg
   width="225"
   height="225"
   viewBox="0 0 59.531249 59.53125"
   version="1.1"
   id="svg1"
   inkscape:version="1.4 (e7c3feb100, 2024-10-09)"
   sodipodi:docname="RenOS-Logga.svg"
   xmlns:inkscape="http://www.inkscape.org/namespaces/inkscape"
   xmlns:sodipodi="http://sodipodi.sourceforge.net/DTD/sodipodi-0.dtd"
   xmlns="http://www.w3.org/2000/svg"
   xmlns:svg="http://www.w3.org/2000/svg">
  <sodipodi:namedview
     id="namedview1"
     pagecolor="#ffffff"
     bordercolor="#000000"
     borderopacity="0.25"
     inkscape:showpageshadow="2"
     inkscape:pageopacity="0.0"
     inkscape:pagecheckerboard="0"
     inkscape:deskcolor="#d1d1d1"
     inkscape:document-units="mm"
     inkscape:zoom="5.1022222"
     inkscape:cx="112.5"
     inkscape:cy="113.08798"
     inkscape:window-width="1920"
     inkscape:window-height="1011"
     inkscape:window-x="0"
     inkscape:window-y="0"
     inkscape:window-maximized="1"
     inkscape:current-layer="layer1" />
  <defs
     id="defs1" />
  <g
     inkscape:label="Layer 1"
     inkscape:groupmode="layer"
     id="layer1">
    <text
       xml:space="preserve"
       style="font-size:58.5119px;font-family:Cantarell;-inkscape-font-specification:Cantarell;text-align:start;writing-mode:lr-tb;direction:ltr;text-anchor:start;fill:#ffffff;stroke:#000000;stroke-width:1.0971"
       x="-0.038181469"
       y="49.471504"
       id="text1"
       transform="scale(0.94589539,1.0571994)"><tspan
         id="tspan1"
         style="stroke-width:1.0971"
         x="-0.038181469"
         y="49.471504"
         sodipodi:role="line">R</tspan></text>
    <text
       xml:space="preserve"
       style="font-size:14.1111px;font-family:Cantarell;-inkscape-font-specification:Cantarell;text-align:start;writing-mode:lr-tb;direction:ltr;text-anchor:start;fill:#ffffff;stroke:#000000;stroke-width:0.264583"
       x="43.621876"
       y="36.3825"
       id="text2"><tspan
         sodipodi:role="line"
         id="tspan2"
         style="stroke-width:0.264583"></tspan></text>
    <text
       xml:space="preserve"
       style="font-size:38.8831px;font-family:Cantarell;-inkscape-font-specification:Cantarell;text-align:start;writing-mode:lr-tb;direction:ltr;text-anchor:start;fill:#ffffff;stroke:#000000;stroke-width:0.729061"
       x="0.41881976"
       y="67.423607"
       id="text3"
       transform="matrix(0.67627715,-0.66755223,0.67017369,0.81715618,0,0)"><tspan
         sodipodi:role="line"
         id="tspan3"
         style="stroke-width:0.729061"
         x="0.41881976"
         y="67.423607">E</tspan></text>
    <path
       style="fill:#000000;stroke:#000000;stroke-width:0.496088"
       d="M 21.083753,116.58075 V 37.702711 l 23.93626,0.0086 c 24.954854,0.009 30.555185,0.309458 37.578689,2.01635 5.380113,1.307504 13.325865,5.162353 16.976246,8.235953 5.857792,4.932224 10.036962,11.597051 12.385742,19.752442 1.00898,3.503382 1.14304,5.044769 1.14336,13.14634 4.1e-4,10.199154 -0.66289,13.841261 -3.88535,21.334274 -3.67271,8.53992 -10.548771,16.2526 -18.717753,20.99517 l -2.26756,1.31646 -1.420291,-2.9716 -1.420296,-2.9716 H 72.829622 60.26644 l 2.736774,5.45698 2.736774,5.45697 H 52.093416 38.446843 v -5.66296 -5.66294 l 18.231245,-0.20701 c 20.21989,-0.22958 21.030647,-0.33634 27.85269,-3.6678 4.915143,-2.40025 9.240091,-6.7252 11.640339,-11.64034 2.708499,-5.546368 3.398121,-8.715871 3.658548,-16.814721 0.197285,-6.135259 0.0775,-7.839966 -0.814434,-11.58997 C 96.151051,62.191274 88.13667,54.106241 76.02074,51.036099 72.345832,50.104889 70.040663,49.974413 53.20547,49.744723 L 34.478137,49.489218 v 31.809457 31.809455 h -3.224574 -3.224574 v 10.6659 10.6659 h 3.224574 3.224574 v 30.50943 30.50943 h -6.697192 -6.697192 z"
       id="path25"
       transform="scale(0.26458333)" />
    <path
       style="fill:#000000;stroke:#000000;stroke-width:0.248044"
       d="M 17.239068,116.45673 V 33.237916 l 24.742405,0.0036 c 24.71339,0.0036 31.232233,0.164858 35.90439,0.888192 22.214557,3.439215 36.357847,17.482744 39.195757,38.919292 0.5227,3.94827 0.52239,11.682332 -6.1e-4,15.626782 -1.3278,10.013996 -4.92791,19.023678 -10.49317,26.260278 -1.67147,2.17345 -5.34924,5.93943 -7.475849,7.65518 -2.197289,1.77276 -6.081814,4.35938 -7.783933,5.18315 -0.869382,0.42075 -1.162347,0.69204 -1.081443,1.00143 0.06103,0.23338 8.383104,16.21803 18.493495,35.52144 10.11038,19.3034 18.38252,35.1614 18.38252,35.23998 0,0.0786 -5.58952,0.11395 -12.42115,0.0786 l -12.42114,-0.0643 -16.789743,-32.74183 -16.789744,-32.74183 -15.189016,-0.0639 -15.189016,-0.0639 v 32.86775 32.86776 H 27.780945 17.239068 Z m 103.434412,78.95295 c 0,-0.16344 -7.6655,-14.93224 -17.03444,-32.81955 l -17.034442,-32.52239 -3.131835,1.05847 c -2.995,1.01223 -8.646596,2.32154 -10.020848,2.32154 -0.358027,0 -0.650957,0.10374 -0.650957,0.23053 0,0.22364 30.732192,60.35063 31.418862,61.47046 l 0.34223,0.55809 h 8.05571 c 6.09271,0 8.05572,-0.0724 8.05572,-0.29715 z m -89.109862,-61.40314 -3.162563,-0.0775 v -10.15499 -10.15499 l 3.162563,-0.0775 3.162563,-0.0775 -3.286585,-0.0539 -3.286585,-0.0539 v 10.41785 10.41786 l 3.286585,-0.0539 3.286585,-0.0539 z m 3.038541,-10.23251 v -6.2011 h -1.240221 -1.24022 v 6.2011 6.2011 h 1.24022 1.240221 z M 66.35181,129.71 c 0,-0.38554 -5.491075,-10.94543 -5.622967,-10.81354 -0.06112,0.0611 1.067423,2.4662 2.507875,5.3446 1.440452,2.87841 2.619004,5.28936 2.619004,5.35767 0,0.0683 -6.222808,0.15399 -13.828461,0.19041 l -13.828462,0.0662 14.076506,0.0599 c 9.861345,0.042 14.076505,-0.0195 14.076505,-0.20525 z m 6.697192,-0.35336 c 2.361542,-0.26377 6.225884,-1.13253 8.988902,-2.02083 l 2.663776,-0.8564 -0.868574,-1.72475 -0.868573,-1.72476 H 75.15426 c -4.295651,0 -7.810273,0.072 -7.810273,0.15989 0,0.0879 0.749009,1.59104 1.664465,3.34023 1.405895,2.68627 1.743061,3.16469 2.170387,3.07967 0.278256,-0.0554 1.11983,-0.16924 1.870163,-0.25305 z m 17.745565,-5.85804 c 11.309563,-6.45194 19.232123,-17.60988 21.914913,-30.864408 1.41373,-6.984651 1.57214,-15.602459 0.38967,-21.197477 -0.18742,-0.886757 -0.28614,-1.221617 -0.21939,-0.744132 0.0667,0.477485 0.18603,3.770271 0.26508,7.317302 0.26483,11.884237 -0.49397,16.636411 -3.86683,24.217105 -3.85845,8.67211 -10.356006,15.98564 -18.656389,20.99931 -1.176315,0.71052 -2.21018,1.29186 -2.297477,1.29186 -0.0873,0 -0.774391,-1.25572 -1.526878,-2.79049 -0.752486,-1.53478 -1.490475,-2.83293 -1.639974,-2.88479 -0.149501,-0.0519 0.435432,1.25968 1.299851,2.91452 0.864417,1.65484 1.694015,3.00881 1.843553,3.00881 0.149536,0 1.271777,-0.57043 2.493871,-1.26761 z m -26.943868,-5.8353 c 0.05684,-0.0497 -5.663676,-0.0904 -12.712262,-0.0904 -7.78601,0 -12.815616,0.091 -12.815616,0.23196 0,0.21582 25.279499,0.0756 25.527878,-0.14159 z m 11.249388,-0.50112 c -0.167933,-0.0679 -0.502793,-0.0721 -0.744133,-0.009 -0.241339,0.0629 -0.103937,0.11848 0.305335,0.12354 0.409273,0.005 0.606731,-0.0464 0.438798,-0.11435 z m 4.554051,-0.92884 c 7.665011,-2.637 13.147163,-7.19868 16.381877,-13.6313 1.135403,-2.25788 2.819856,-6.930206 2.796376,-7.756567 -0.0073,-0.25557 -0.290949,0.475094 -0.630419,1.623699 -3.117876,10.549408 -9.797799,17.073558 -20.465362,19.988098 -1.882806,0.51441 -2.086495,0.61052 -1.059002,0.49966 0.699703,-0.0755 2.039141,-0.40111 2.97653,-0.72359 z m -5.364915,-3.21591 c 4.385999,-0.84796 8.377443,-2.39488 11.334901,-4.39294 1.952135,-1.31886 5.057308,-4.67683 6.306483,-6.81989 3.05347,-5.238492 4.410555,-11.558845 4.116238,-19.170579 C 95.448451,67.158152 87.519414,57.704542 72.800958,54.918479 70.721495,54.524856 68.556858,54.461837 54.38368,54.382291 l -16.060859,-0.09014 v 29.674207 29.674212 l 16.929014,-0.10777 c 14.369758,-0.0915 17.247747,-0.16938 19.037388,-0.51537 z M 99.015036,93.714181 c -0.07918,-0.197873 -0.137958,-0.139098 -0.149859,0.149861 -0.01077,0.261478 0.04785,0.40798 0.130278,0.325557 0.08242,-0.08243 0.09123,-0.29636 0.01958,-0.475418 z m 0.749743,-13.905976 c -0.05912,-0.306954 -0.107495,-0.05581 -0.107495,0.5581 0,0.613909 0.04837,0.865054 0.107495,0.558099 0.05912,-0.306954 0.05912,-0.809244 0,-1.116199 z m -0.252112,-2.356419 c -0.06239,-0.238742 -0.113438,-0.04341 -0.113438,0.434077 0,0.477485 0.05105,0.67282 0.113438,0.434078 0.06239,-0.238743 0.06239,-0.629412 0,-0.868155 z M 99.26553,75.968241 c -0.06289,-0.241339 -0.11848,-0.103937 -0.123536,0.305335 -0.0051,0.409273 0.0464,0.606731 0.114346,0.438798 0.06795,-0.167933 0.07208,-0.502793 0.0092,-0.744133 z m -0.250494,-1.105416 c -0.07918,-0.197872 -0.137958,-0.139098 -0.149859,0.149861 -0.01077,0.261478 0.04785,0.407981 0.130278,0.325558 0.08242,-0.08243 0.09123,-0.296361 0.01958,-0.475419 z m -0.248045,-0.992176 c -0.07918,-0.197873 -0.137957,-0.139099 -0.149858,0.14986 -0.01077,0.261479 0.04785,0.407981 0.130278,0.325558 0.08242,-0.08243 0.09123,-0.29636 0.01958,-0.475418 z m -0.248044,-0.992177 c -0.07918,-0.197872 -0.137957,-0.139098 -0.149858,0.149861 -0.01077,0.261478 0.04785,0.40798 0.130278,0.325558 0.08242,-0.08243 0.09123,-0.296361 0.01958,-0.475419 z m -0.417485,-1.565779 c -0.387845,-1.175178 -0.565489,-0.997534 -0.198436,0.198436 0.154847,0.504536 0.329775,0.869104 0.38873,0.810149 0.05895,-0.05896 -0.02668,-0.512819 -0.190294,-1.008585 z M 112.5113,68.283655 C 110.54842,60.201228 106.13647,52.831468 100.40159,48.055503 93.906435,42.646383 86.415997,39.541499 76.262186,38.049402 73.883735,37.699891 70.997481,37.623308 58.53842,37.579124 l -14.882649,-0.05278 13.76645,0.183286 c 15.270362,0.203309 18.271222,0.406731 23.93626,1.622589 4.810658,1.032487 11.974372,4.154693 16.361685,7.131015 2.013441,1.365906 5.330314,4.587934 7.196034,6.990278 3.09142,3.980575 5.58282,8.888514 6.98906,13.768125 0.71799,2.4914 1.12742,3.208883 0.60604,1.062016 z m -15.371736,0.505189 c -0.292405,-0.502837 -0.363015,-0.341892 -0.123658,0.281863 0.08507,0.221677 0.206916,0.350799 0.27078,0.286935 0.06386,-0.06386 -0.0023,-0.319824 -0.147122,-0.568798 z m -1.23972,-2.627202 c -0.244973,-0.243147 -0.273464,-0.214657 -0.138855,0.138855 0.09315,0.244627 0.231844,0.382291 0.308215,0.305921 0.07637,-0.07637 1.58e-4,-0.276517 -0.16936,-0.444776 z m -0.774912,-1.422119 c -0.146024,-0.272848 -0.321309,-0.496088 -0.389521,-0.496088 -0.06821,0 -0.0045,0.22324 0.141477,0.496088 0.146023,0.272849 0.321309,0.496089 0.389521,0.496089 0.06821,0 0.0045,-0.22324 -0.141477,-0.496089 z m -1.282609,-1.922342 c -1.140527,-1.658259 -4.404977,-5.004467 -5.82875,-5.97473 -0.886128,-0.603872 -0.97205,-0.635176 -0.329966,-0.120214 1.836889,1.473209 4.32089,3.993933 5.517288,5.598856 1.435489,1.925653 1.83965,2.238239 0.641428,0.496088 z m -7.357707,-7.081592 c -0.294602,-0.354973 -4.559173,-2.656996 -4.908059,-2.64938 -0.119942,0.0026 0.842313,0.567092 2.138344,1.254386 1.296031,0.687294 2.462458,1.354871 2.592061,1.483504 0.351662,0.349032 0.485457,0.282373 0.177654,-0.08851 z m -6.123585,-3.155774 c -1.468753,-0.677107 -5.128451,-1.693882 -6.62671,-1.841101 -1.008979,-0.09914 -0.82115,-0.02044 0.827111,0.346558 1.172899,0.261156 3.070437,0.800948 4.21675,1.199536 2.415638,0.839949 3.00195,0.949224 1.582849,0.295007 z m -8.363324,-2.149234 c -0.237153,-0.06208 -0.683632,-0.06434 -0.992177,-0.005 -0.308544,0.05933 -0.114512,0.110126 0.431185,0.112879 0.545698,0.0028 0.798144,-0.04579 0.560992,-0.107873 z m -3.47551,-0.248602 c -0.238743,-0.06239 -0.629412,-0.06239 -0.868155,0 -0.238742,0.06239 -0.04341,0.113437 0.434077,0.113437 0.477485,0 0.67282,-0.05105 0.434078,-0.113437 z m -8.888248,-0.16663 c -0.26598,-0.230509 -25.03179,-0.385959 -25.03179,-0.157119 0,0.160309 4.400582,0.246688 12.567571,0.246688 6.912162,0 12.521061,-0.04031 12.464219,-0.08957 z"
       id="path26"
       transform="scale(0.26458333)" />
    <path
       style="fill:#000000;stroke:#000000;stroke-width:0.248044"
       d="m 32.369762,123.77403 v -5.95306 h 0.992176 0.992177 v 5.95306 5.95306 h -0.992177 -0.992176 z"
       id="path27"
       transform="scale(0.26458333)" />
    <path
       style="fill:#000000;stroke:#000000;stroke-width:0.248044"
       d="M 17.239068,116.43805 V 33.200566 l 27.842956,0.108124 c 24.016669,0.09327 28.266142,0.164275 30.922372,0.516721 17.203852,2.282722 29.799944,10.411716 36.353804,23.46124 3.05624,6.085338 4.66672,12.385719 5.07357,19.848405 0.88887,16.304155 -4.05201,30.970934 -13.91254,41.298724 -3.520429,3.68725 -8.065751,7.24965 -11.49485,9.00909 -0.545697,0.27999 -1.195064,0.66136 -1.443037,0.84749 -0.491454,0.36889 -2.759848,-4.06725 27.307217,53.40282 4.92505,9.41374 9.02986,17.31188 9.12178,17.55143 0.15823,0.41233 -0.49764,0.43212 -12.30186,0.37123 l -12.469,-0.0643 -16.728544,-32.61781 c -9.200701,-17.93979 -16.761747,-32.65292 -16.802322,-32.69584 -0.04058,-0.0429 -6.89398,-0.14251 -15.229784,-0.22131 l -15.156009,-0.14327 v 32.90112 32.90113 H 27.780945 17.239068 Z M 120.54433,195.4229 c 0.0878,-0.088 -0.94941,-2.26454 -2.30487,-4.83686 -1.35545,-2.57232 -8.96879,-17.12256 -16.91854,-32.33387 -7.949747,-15.21131 -14.536969,-27.75057 -14.638268,-27.86502 -0.101298,-0.11446 -1.575732,0.24462 -3.276516,0.79794 -1.700785,0.55333 -4.643201,1.30526 -6.538702,1.67096 -1.895502,0.36571 -3.594631,0.70411 -3.775847,0.752 -0.22389,0.0592 0.880889,2.45213 3.447245,7.46673 18.365326,35.88544 24.370668,47.59945 26.077988,50.86765 l 1.98562,3.80094 7.89115,-0.0803 c 4.34013,-0.0442 7.96297,-0.15224 8.05074,-0.24019 z M 34.602159,123.77403 v -6.2011 h -1.240221 -1.24022 v 6.2011 6.2011 h 1.24022 1.240221 z m 31.749651,6.07433 c 0,-0.32183 -4.260835,-8.59337 -4.37025,-8.48395 -0.06824,0.0682 0.775525,1.92064 1.875043,4.11644 1.099515,2.1958 1.999119,4.0413 1.999119,4.10111 0,0.0598 -0.195335,0.1598 -0.434077,0.22219 -0.267059,0.0698 -0.171622,0.12451 0.248044,0.14221 0.375167,0.0158 0.682121,-0.0283 0.682121,-0.098 z m 8.061435,-0.72056 c 3.753732,-0.66315 8.896813,-2.03913 9.797744,-2.62129 0.318214,-0.20562 0.251467,-0.47462 -0.461144,-1.85852 l -0.83321,-1.61809 h -7.787036 -7.787036 l 0.310767,0.68212 c 0.170922,0.37517 0.897789,1.82623 1.615261,3.22457 1.302837,2.53923 1.30567,2.54246 2.232398,2.54212 0.510345,-1.9e-4 1.820862,-0.1581 2.912256,-0.35091 z m 19.843532,-7.85679 c 5.681122,-3.91699 10.961213,-10.02545 14.131333,-16.34833 1.19213,-2.37774 2.74838,-6.196869 2.98172,-7.317307 0.0852,-0.409273 -0.36108,0.539052 -0.9918,2.107386 -2.59948,6.463831 -5.46519,10.972021 -9.88748,15.554511 -3.032808,3.14267 -5.057267,4.86427 -8.00265,6.80543 -2.974084,1.96009 -3.085945,2.0512 -1.455697,1.18563 0.818546,-0.4346 2.269604,-1.32889 3.224574,-1.98732 z m -7.785156,-0.13795 c -0.547587,-1.07131 -1.001193,-1.86598 -1.008011,-1.76592 -0.01862,0.27313 1.810027,3.90737 1.913839,3.80356 0.04938,-0.0494 -0.35824,-0.96632 -0.905828,-2.03764 z m -25.328738,-1.93321 c 0,-0.0602 -0.11162,-0.17836 -0.248044,-0.26268 -0.136424,-0.0843 -0.248044,-0.0351 -0.248044,0.10938 0,0.14448 0.11162,0.26269 0.248044,0.26269 0.136424,0 0.248044,-0.0492 0.248044,-0.10939 z m -7.710038,-1.53722 c 0.179755,-0.15602 -9.662815,-0.0368 -12.381538,0.15002 -1.432455,0.0984 0.744132,0.1251 4.836861,0.0593 4.092728,-0.0658 7.487833,-0.15999 7.544677,-0.20933 z m 26.381068,-1.54497 c 1.149933,-0.39112 2.302748,-0.84408 2.56181,-1.00657 0.259062,-0.16249 0.303594,-0.24056 0.09896,-0.17349 -3.431698,1.12481 -5.099339,1.69893 -5.185673,1.78526 -0.256557,0.25656 0.582735,0.0554 2.524906,-0.6052 z m -6.298712,-2.99977 C 85.005695,111.28172 92.242135,104.85403 94.962096,94.067909 96.471678,88.081599 96.416691,80.397052 94.820574,74.289223 92.835725,66.693846 88.16176,60.944053 81.30219,57.659253 77.854245,56.008156 74.199136,55.043863 69.700406,54.598463 68.336164,54.463395 60.718108,54.342387 52.771393,54.329556 l -14.448572,-0.02333 v 29.669758 29.669756 l 16.680969,-0.11767 c 11.050191,-0.078 17.298848,-0.21641 18.511411,-0.41018 z m 12.928186,-0.15123 c 0,-0.0682 -0.22324,-0.005 -0.496089,0.14147 -0.272848,0.14603 -0.496088,0.32131 -0.496088,0.38952 0,0.0682 0.22324,0.005 0.496088,-0.14147 0.272849,-0.14603 0.496089,-0.32131 0.496089,-0.38952 z m 6.512104,-5.68756 c 0.890163,-1.1526 0.619242,-0.89447 -1.562011,1.48826 -1.217964,1.33046 -1.31073,1.47541 -0.396876,0.62011 0.65594,-0.61391 1.537437,-1.56268 1.958887,-2.10837 z m 1.921397,-2.60447 c 0.146023,-0.27285 0.209689,-0.49609 0.141477,-0.49609 -0.06821,0 -0.243498,0.22324 -0.389521,0.49609 -0.146024,0.27285 -0.20969,0.49609 -0.141477,0.49609 0.06821,0 0.243497,-0.22324 0.389521,-0.49609 z M 113.08452,90.350082 c 0.63309,-4.141995 0.87016,-9.300708 0.61535,-13.390202 -0.37655,-6.043286 -0.59839,-5.425475 -0.50353,1.402268 0.0796,5.725752 -0.15832,11.031121 -0.61537,13.724243 -0.0868,0.511591 -0.10074,0.930166 -0.0309,0.930166 0.0698,0 0.31033,-1.199914 0.53449,-2.666475 z m -1.5874,-25.398255 C 106.8521,51.087378 96.022998,41.977165 80.449983,38.832767 76.126131,37.959725 73.646615,37.715231 67.840075,37.589363 l -5.084905,-0.110225 5.95306,0.351077 c 11.211878,0.661212 16.21697,1.840655 23.696764,5.58411 4.366787,2.185471 6.98242,4.059168 9.940076,7.120523 4.03978,4.181433 7.04489,9.119993 8.90943,14.641662 0.47274,1.399949 0.89443,2.440616 0.93711,2.312593 0.0427,-0.128026 -0.26985,-1.269798 -0.69449,-2.537276 z M 52.58536,49.988559 c -0.519199,-0.189384 -17.983201,-0.325771 -17.983201,-0.140442 0,0.107143 4.10203,0.20293 9.115623,0.212862 5.013592,0.0099 9.004002,-0.02266 8.867578,-0.07242 z"
       id="path28"
       transform="scale(0.26458333)" />
    <path
       style="fill:#000000;stroke:#000000;stroke-width:0.248044"
       d="M 17.239068,116.45673 V 33.237916 l 24.742405,0.0071 c 25.315934,0.0072 31.991506,0.167191 36.222651,0.868015 20.323897,3.366342 33.686656,15.225355 38.003756,33.727085 0.89803,3.848683 1.29561,7.758593 1.29895,12.774274 0.006,8.998526 -1.35484,16.081615 -4.49623,23.40273 -2.66262,6.20534 -5.47002,10.31665 -10.44434,15.29526 -3.677732,3.6809 -6.635391,5.99002 -10.227844,7.98512 -1.055098,0.58597 -1.920152,1.20298 -1.922342,1.37115 -0.0046,0.35156 2.119468,4.45664 19.221526,37.1489 14.58978,27.88981 17.48503,33.46881 17.48503,33.69276 0,0.0909 -5.6089,0.16107 -12.46422,0.15593 l -12.46422,-0.009 -16.742797,-32.6926 -16.742796,-32.69261 -14.963579,-0.16696 c -8.229968,-0.0918 -15.066769,-0.10319 -15.192888,-0.0252 -0.138507,0.0856 -0.229309,13.101 -0.229309,32.86891 v 32.72719 H 27.780945 17.239068 Z m 98.163472,79.08606 c 3.03587,-0.0984 5.0229,-0.25977 5.0229,-0.40803 0,-0.1349 -2.92065,-5.83771 -6.49034,-12.67289 -8.55259,-16.37639 -27.273459,-52.10107 -27.335986,-52.16475 -0.02705,-0.0275 -1.105637,0.28457 -2.396861,0.69358 -3.047386,0.9653 -7.729926,2.11749 -9.508807,2.33975 -0.771626,0.0964 -1.460531,0.26844 -1.530904,0.38231 -0.179522,0.29047 7.726888,15.91039 28.335178,55.979 l 3.0937,6.01507 2.89411,-6.5e-4 c 1.59177,-3.5e-4 5.15442,-0.0739 7.91701,-0.16339 z m -80.858059,-71.70675 -0.06634,-6.13909 H 33.361938 32.24574 l -0.06634,6.13909 -0.06634,6.13909 h 1.248887 1.248887 z m 30.330125,2.93656 c -0.690692,-1.37636 -1.301771,-2.50248 -1.35795,-2.50248 -0.05618,0 0.475032,1.22356 1.180472,2.71901 0.705437,1.49547 1.316516,2.62158 1.35795,2.50249 0.04143,-0.11909 -0.489778,-1.34265 -1.180472,-2.71902 z m 11.895059,1.82513 c 2.788353,-0.58644 7.689368,-2.0035 7.689368,-2.22328 0,-0.0608 -0.358815,-0.83823 -0.79737,-1.72757 l -0.79737,-1.61698 h -7.636131 c -5.025124,0 -7.636131,0.0865 -7.636131,0.253 0,0.34958 2.180514,4.67159 2.795974,5.54191 0.486312,0.68769 0.549643,0.7047 2.015619,0.54143 0.832443,-0.0927 2.797161,-0.43855 4.366041,-0.76851 z m 18.603311,-8.21513 c 2.067885,-1.51972 5.860424,-5.17058 7.685594,-7.39849 1.94458,-2.37367 4.07735,-5.69592 5.50694,-8.57826 1.71906,-3.46597 1.45906,-3.36431 -0.37023,0.14476 -3.42625,6.57247 -7.70112,11.63996 -13.442414,15.93482 -1.364243,1.02054 -2.536252,1.91959 -2.604464,1.99788 -0.25973,0.29812 1.679633,-0.96532 3.224574,-2.10071 z m -15.942003,-4.19975 c -0.08243,-0.0824 -0.296361,-0.0912 -0.475419,-0.0196 -0.197873,0.0792 -0.139098,0.13795 0.149861,0.14985 0.261478,0.0108 0.40798,-0.0478 0.325558,-0.13027 z m -17.047869,-2.81668 11.286009,-0.20226 2.908823,-0.75354 C 86.872069,109.74362 93.065186,103.17866 95.245789,92.621678 96.559004,86.263999 96.020145,77.137747 94.016896,71.808782 90.734508,63.077107 84.369068,57.713646 74.537267,55.395427 72.251657,54.856508 71.05216,54.754934 64.739523,54.56575 60.783219,54.447183 53.220973,54.34376 47.934532,54.335921 l -9.611711,-0.01425 v 29.641276 29.641273 l 6.387137,-0.0179 c 3.512925,-0.01 11.465841,-0.10892 17.673146,-0.22015 z M 110.24803,100.5819 c 0,-0.13642 -0.1082,-0.0806 -0.24045,0.12403 -0.13225,0.20463 -0.24045,0.48368 -0.24045,0.62011 0,0.13642 0.1082,0.0806 0.24045,-0.12403 0.13225,-0.20463 0.24045,-0.48368 0.24045,-0.62011 z m 3.3706,-18.231242 c 0.0836,-2.9701 0.0452,-6.102248 -0.0868,-7.069258 -0.19436,-1.424391 -0.24283,-0.622313 -0.26979,4.464794 -0.0181,3.410608 -0.0824,7.149873 -0.14299,8.30948 -0.0951,1.821241 -0.0788,1.939474 0.11966,0.868154 0.12639,-0.682121 0.29735,-3.640048 0.37992,-6.57317 z m -3.36317,-20.506232 c -3.6898,-8.681135 -10.00736,-15.200603 -18.727168,-19.325695 -2.348795,-1.111147 -6.592012,-2.654635 -8.061435,-2.93238 -0.477485,-0.09025 0.359664,0.26571 1.860331,0.791028 4.817684,1.68646 9.937398,4.234815 13.021271,6.481384 2.242041,1.633304 6.390421,6.057878 8.159671,8.702947 1.59446,2.38374 3.32335,5.639989 4.1186,7.757088 0.24456,0.651059 0.49421,1.134182 0.55478,1.073612 0.0606,-0.06057 -0.35615,-1.207164 -0.92605,-2.547984 z M 44.346948,49.922364 c -0.711247,-0.04993 -1.939065,-0.05039 -2.728486,-0.001 -0.78942,0.04937 -0.207491,0.09023 1.293176,0.09079 1.500667,5.6e-4 2.146557,-0.03984 1.43531,-0.08977 z M 81.978592,39.190976 c -0.341061,-0.109227 -0.84335,-0.198594 -1.116199,-0.198594 -0.39282,0 -0.367001,0.04134 0.124022,0.198594 0.341061,0.109227 0.84335,0.198594 1.116199,0.198594 0.39282,0 0.367001,-0.04134 -0.124022,-0.198594 z m -3.224574,-0.636161 c -1.928023,-0.393408 -7.675287,-0.944153 -8.337134,-0.798925 -0.257638,0.05653 0.703575,0.191043 2.13603,0.298909 1.432455,0.107866 3.497423,0.336297 4.588817,0.507625 2.625512,0.412154 3.645869,0.407338 1.612287,-0.0076 z"
       id="path29"
       transform="scale(0.26458333)" />
    <path
       style="fill:#000000;stroke:#000000;stroke-width:0.248044"
       d="m 103.22821,192.42025 c -6.053116,-11.5089 -29.254948,-57.16026 -29.533178,-58.10877 -0.135121,-0.46064 0.07683,-0.54434 2.660211,-1.0505 1.543866,-0.30249 4.445225,-1.01678 6.447464,-1.58731 2.002238,-0.57053 3.679179,-0.99077 3.726535,-0.93386 0.108981,0.13098 27.502978,52.49019 30.915318,59.08966 1.39705,2.70191 2.46437,4.98829 2.37182,5.08084 -0.22823,0.22822 -5.79474,0.49797 -10.84915,0.52574 l -4.1409,0.0227 z"
       id="path30"
       transform="scale(0.26458333)" />
    <path
       style="fill:#000000;stroke:#000000;stroke-width:0.248044"
       d="m 70.774065,128.81665 c -0.650484,-0.73218 -2.726849,-5.02381 -2.560683,-5.29267 0.09489,-0.15353 2.856183,-0.24604 7.344424,-0.24604 h 7.192364 l 0.63444,1.3858 c 0.353272,0.77165 0.539562,1.47828 0.420354,1.59448 -0.344257,0.33556 -4.951743,1.63245 -7.779432,2.18972 -4.331632,0.85366 -4.791909,0.88598 -5.251467,0.36871 z"
       id="path31"
       transform="scale(0.26458333)" />
    <path
       style="fill:#000000;stroke:#000000;stroke-width:0.248044"
       d="M 17.239068,116.43905 V 33.202565 l 28.215023,0.108573 c 29.638393,0.11405 29.757549,0.118444 35.532324,1.310425 16.32826,3.370343 28.060975,12.872113 33.360895,27.017408 2.26436,6.043487 3.17345,11.518625 3.17126,19.0994 -0.003,9.871686 -1.67807,17.627786 -5.51816,25.548549 -2.61291,5.38952 -5.50316,9.3355 -10.08666,13.77104 -3.09875,2.99871 -5.398769,4.77643 -8.974442,6.9365 -1.389967,0.83969 -2.527215,1.59342 -2.527215,1.67497 0,0.21007 3.628216,7.21029 16.811147,32.43514 17.91315,34.27592 19.89939,38.10329 19.89939,38.34511 0,0.13279 -5.13807,0.22586 -12.46925,0.22586 H 102.18414 L 86.327714,168.73203 C 77.606682,151.7131 70.037002,136.97928 69.506203,135.99021 l -0.965088,-1.79832 H 53.453512 38.36591 l 0.04047,2.41843 c 0.02226,1.33013 0.01256,16.06396 -0.02154,32.74182 l -0.06201,30.3234 H 27.780945 17.239068 Z m 84.929072,73.62478 c -11.517942,-22.27977 -28.490122,-55.83951 -28.323836,-56.0058 0.04804,-0.048 1.311908,-0.37245 2.808586,-0.72092 1.496681,-0.34846 4.261253,-1.0413 6.143493,-1.53964 2.188286,-0.57937 3.508183,-0.82015 3.660564,-0.66777 0.246571,0.24657 5.727754,10.65682 20.875743,39.6487 9.06619,17.35188 12.43567,23.94056 12.3015,24.0544 -0.0423,0.0359 -1.36054,0.17372 -2.92942,0.30628 l -2.8525,0.24103 3.12122,0.0393 c 1.71667,0.0216 3.19561,-0.0351 3.28652,-0.12596 0.19896,-0.19896 -2.06813,-4.62019 -16.76793,-32.70055 -16.469332,-31.46063 -16.744574,-31.979 -17.030514,-32.07432 -0.143987,-0.048 -1.761186,0.36223 -3.593773,0.9116 -1.83259,0.54938 -4.596179,1.23919 -6.141308,1.5329 -1.545131,0.29372 -3.017107,0.61103 -3.271057,0.70513 -0.51399,0.19046 -0.59772,0.0206 15.786224,32.02524 15.088728,29.47456 15.371118,30.01334 15.730748,30.01334 0.0622,0 -1.19977,-2.53935 -2.80426,-5.643 z m 9.76178,5.21059 c -1.05729,-0.0465 -2.78739,-0.0465 -3.84468,0 -1.05729,0.0465 -0.19224,0.0845 1.92234,0.0845 2.11458,0 2.97963,-0.038 1.92234,-0.0845 z m -77.443118,-70.13615 0.0087,-4.71283 -0.07615,4.65082 -0.07615,4.65083 h -0.986703 -0.986703 l -0.05633,-5.02289 -0.05633,-5.0229 -0.07324,4.82955 c -0.04028,2.65626 -0.01595,4.97884 0.05406,5.16129 0.08563,0.22314 0.47314,0.30674 1.183757,0.25536 l 1.056457,-0.0764 z m 41.910796,3.46064 c 4.289006,-0.8555 7.814912,-2.00221 7.807597,-2.53921 -0.0032,-0.23394 -0.310519,-0.98344 -0.682962,-1.66556 l -0.677171,-1.24022 -6.34362,-0.0661 c -3.488991,-0.0364 -6.934726,0.0194 -7.657187,0.12402 l -1.313563,0.19013 1.424615,2.72849 c 0.783539,1.50067 1.542938,2.87573 1.687556,3.05568 0.313612,0.39026 1.420404,0.27731 5.754735,-0.58722 z m 20.215599,-9.29166 c 0.477485,-0.43029 0.17053,-0.25455 -0.682122,0.39054 -0.852651,0.64509 -1.550276,1.21984 -1.550276,1.27721 0,0.15359 1.235776,-0.76962 2.232398,-1.66775 z m 6.470193,-6.47526 c 1.29835,-1.58876 2.28835,-2.94843 2.14682,-2.94843 -0.10911,0 -1.61935,1.89662 -3.55522,4.46479 -0.80648,1.0699 0.0372,0.16154 1.4084,-1.51636 z m -44.296926,0.52719 c 14.530949,-0.219 14.652811,-0.22509 17.205225,-0.85891 11.351058,-2.81874 17.701973,-9.91655 19.541905,-21.840133 0.542485,-3.515542 0.32818,-11.187714 -0.408677,-14.630753 C 93.901943,70.314926 91.841683,66.413737 88.04916,62.631148 84.46991,59.061269 80.813883,57.049788 75.426528,55.686394 71.091445,54.589302 67.889126,54.451498 46.6323,54.447306 l -8.185457,-0.0016 -0.06384,29.26921 c -0.03511,16.098065 -0.01071,29.408734 0.05423,29.579264 0.140001,0.36767 0.24577,0.368 20.349231,0.065 z m 47.996546,-5.70802 c 0.14602,-0.27285 0.20969,-0.49609 0.14147,-0.49609 -0.0682,0 -0.24349,0.22324 -0.38952,0.49609 -0.14602,0.27285 -0.20969,0.49609 -0.14147,0.49609 0.0682,0 0.24349,-0.22324 0.38952,-0.49609 z m 0.99217,-1.73631 c 0.14603,-0.27285 0.20969,-0.49609 0.14148,-0.49609 -0.0682,0 -0.2435,0.22324 -0.38952,0.49609 -0.14602,0.27285 -0.20969,0.49609 -0.14148,0.49609 0.0682,0 0.2435,-0.22324 0.38952,-0.49609 z m 5.92048,-25.300501 c 0.0106,-1.841728 -0.078,-3.739266 -0.19675,-4.216751 -0.14048,-0.564675 -0.21299,1.169489 -0.20743,4.960883 0.006,3.942213 0.0695,5.307151 0.19675,4.216751 0.10351,-0.886758 0.19685,-3.119155 0.20743,-4.960883 z M 109.0154,59.282552 c -0.4132,-0.818546 -0.80708,-1.488265 -0.87529,-1.488265 -0.0682,0 0.21405,0.669719 0.62725,1.488265 0.4132,0.818546 0.80708,1.488265 0.8753,1.488265 0.0682,0 -0.21406,-0.669719 -0.62726,-1.488265 z m -1.50714,-2.666475 c -1.53305,-2.567374 -4.57846,-6.211919 -6.53007,-7.814768 -1.038808,-0.853165 -0.9536,-0.729919 0.47748,0.690666 2.19937,2.183229 3.97106,4.316094 5.32758,6.413648 1.13375,1.753092 1.64922,2.25822 0.72501,0.710454 z M 97.109285,45.77226 c 0,-0.483482 -9.243829,-5.109506 -9.566053,-4.78728 -0.05585,0.05584 1.097,0.623613 2.561874,1.261713 1.464874,0.6381 3.612175,1.712319 4.771782,2.387155 2.304811,1.34129 2.232397,1.304363 2.232397,1.138412 z"
       id="path32"
       transform="scale(0.26458333)" />
    <path
       style="fill:#000000;stroke:#000000;stroke-width:0.248044"
       d="M 17.239068,116.45673 V 33.237916 l 25.238493,0.0047 c 25.477614,0.0048 31.951155,0.160924 36.105872,0.87088 21.701407,3.708326 35.529497,17.428428 38.518457,38.217653 0.51617,3.590169 0.58352,12.412003 0.12289,16.096555 -0.77617,6.208498 -2.48535,12.190086 -4.96132,17.363086 -2.65655,5.55028 -5.09477,9.0035 -9.51801,13.48022 -3.054551,3.09148 -5.61748,5.1403 -9.385452,7.50279 -1.553135,0.9738 -2.855893,1.79892 -2.895017,1.83359 -0.09111,0.0807 1.057119,2.29974 16.944169,32.74529 7.26126,13.91528 14.6673,28.11103 16.45788,31.54613 1.79058,3.43509 3.2556,6.36511 3.2556,6.51116 0,0.18517 -3.78258,0.26553 -12.49816,0.26553 H 102.12631 L 89.956719,175.92531 C 83.263443,162.86269 75.722643,148.15677 73.199382,143.2455 l -4.587748,-8.92959 -14.979949,-0.0639 -14.979947,-0.0639 -0.164458,10.83253 c -0.09045,5.95789 -0.164459,20.69257 -0.164459,32.74373 v 21.91121 H 27.780945 17.239068 Z m 102.163182,78.84703 c 0.42633,-0.0853 0.77514,-0.25858 0.77514,-0.38513 0,-0.37205 -33.13559,-63.84929 -33.620268,-64.40573 -0.03945,-0.0453 -1.139857,0.22616 -2.44535,0.60324 -1.305494,0.37707 -2.333587,0.72562 -2.284653,0.77456 0.04893,0.0489 1.059967,-0.15457 2.246741,-0.45222 1.838355,-0.46107 2.205753,-0.4901 2.4819,-0.19612 0.298522,0.3178 7.878185,14.70747 22.52388,42.76061 7.58795,14.53438 10.60166,20.42439 10.60166,20.71995 0,0.13188 -0.41857,0.25299 -0.93016,0.26913 -0.51159,0.0161 -1.26503,0.11456 -1.6743,0.2187 -0.67213,0.17103 -0.63314,0.19219 0.40307,0.21869 0.63096,0.0161 1.49602,-0.0404 1.92234,-0.12568 z M 98.283228,182.6327 C 89.38644,165.29112 75.592236,138.07432 74.624261,135.95211 c -0.460692,-1.01002 -0.784077,-1.88995 -0.718636,-1.9554 0.06544,-0.0654 0.931959,-0.32443 1.925589,-0.57554 1.79964,-0.45481 0.893875,-0.4093 -1.3655,0.0686 -1.055624,0.22328 -1.17019,0.3108 -1.029882,0.78673 0.191808,0.65061 9.158658,18.383 18.834444,37.24603 10.468534,20.40851 11.898614,23.15576 12.001434,23.0554 0.0512,-0.05 -2.64358,-5.42537 -5.988482,-11.94523 z M 78.438796,132.8018 c -0.08243,-0.0824 -0.296361,-0.0912 -0.475419,-0.0196 -0.197872,0.0792 -0.139098,0.13796 0.149861,0.14986 0.261478,0.0108 0.407981,-0.0479 0.325558,-0.13028 z m 2.97653,-0.74413 c -0.08242,-0.0824 -0.296361,-0.0912 -0.475419,-0.0196 -0.197872,0.0792 -0.139098,0.13796 0.149861,0.14986 0.261478,0.0108 0.40798,-0.0479 0.325558,-0.13028 z m -5.265772,-3.46019 c 2.700715,-0.53156 7.726752,-1.92564 8.0278,-2.22669 0.06715,-0.0671 -0.196763,-0.78921 -0.586475,-1.60458 -0.831179,-1.73903 -1.107763,-1.84034 -0.3783,-0.13857 0.276277,0.64453 0.502322,1.26938 0.502322,1.38856 0,0.48747 -7.941362,2.54525 -11.094405,2.87481 -1.440236,0.15054 -1.491326,0.13512 -2.021969,-0.6101 -0.465581,-0.65385 -2.262363,-4.3364 -2.262363,-4.63677 0,-0.0563 1.311533,-0.13776 2.914518,-0.18097 l 2.914519,-0.0786 -3.162563,-0.0533 c -2.141811,-0.0361 -3.162563,0.0336 -3.162563,0.21591 0,0.38004 2.466844,5.13869 2.875903,5.54775 0.403028,0.40303 1.254509,0.32507 5.433576,-0.49746 z m -7.937413,-15.48412 c 5.126562,-0.1721 6.543316,-0.30102 8.17599,-0.74398 5.392254,-1.46301 8.714344,-3.30574 12.039609,-6.67826 1.29603,-1.31445 2.72817,-3.022 3.182535,-3.79457 3.647909,-6.202627 4.996448,-14.357743 3.852813,-23.299353 C 93.888496,66.286131 86.539226,58.254665 74.283015,55.451077 71.346274,54.779303 66.146554,54.570925 52.305058,54.570315 l -13.674689,-6.02e-4 -0.17371,15.192704 c -0.257508,22.521645 -0.101106,43.307673 0.327857,43.572623 0.386172,0.23853 20.154701,0.0896 29.427625,-0.22168 z M 113.70651,79.822845 c 0.012,-1.049237 -0.0899,-1.976689 -0.22631,-2.061004 -0.16123,-0.09964 -0.23644,1.002173 -0.2149,3.147924 0.0257,2.562164 0.0764,3.023571 0.22631,2.061003 0.10625,-0.682121 0.20295,-2.098686 0.2149,-3.147923 z M 91.40427,42.539572 c -0.341061,-0.194968 -0.731731,-0.354487 -0.868155,-0.354487 -0.136424,0 0.03101,0.159519 0.372066,0.354487 0.341061,0.194968 0.73173,0.354487 0.868155,0.354487 0.136424,0 -0.03101,-0.159519 -0.372066,-0.354487 z"
       id="path33"
       transform="scale(0.26458333)" />
    <path
       style="fill:#000000;stroke:#000000;stroke-width:0.248044"
       d="M 17.239068,116.58075 V 33.237916 l 25.610559,0.0022 c 31.349685,0.0027 33.767577,0.120094 41.026252,1.991664 8.924366,2.301051 15.854124,6.254104 21.808701,12.440686 6.06102,6.297175 9.87089,14.437811 11.412,24.384342 0.60647,3.914221 0.60567,13.53884 -0.001,17.611134 -2.44815,16.420698 -10.50917,28.919548 -24.140575,37.430688 -1.261924,0.78791 -2.294408,1.53593 -2.294408,1.66225 0,0.38652 2.318546,4.87941 19.696353,38.16769 9.22137,17.66413 16.76614,32.25945 16.76614,32.43405 0,0.25457 -2.48534,0.30471 -12.54676,0.25316 L 102.0291,199.55152 85.733742,167.80187 C 76.771292,150.33956 69.252533,135.70726 69.025389,135.28565 l -0.412991,-0.76657 -4.292858,-0.16284 c -2.36107,-0.0896 -9.120415,-0.16318 -15.020765,-0.1636 l -10.72791,-7.5e-4 -1.58e-4,11.47204 c -8.7e-5,6.30962 -0.07429,21.09925 -0.164887,32.86585 l -0.164729,21.39381 H 27.74008 17.239068 Z m 101.015982,78.71377 c -0.17053,-0.0688 -0.44958,-0.0688 -0.62011,0 -0.17053,0.0688 -0.031,0.12511 0.31005,0.12511 0.34106,0 0.48059,-0.0563 0.31006,-0.12511 z m 1.91194,-0.26981 c -0.006,-0.10231 -0.2358,-0.5767 -0.5113,-1.05418 -0.2755,-0.47749 -0.42559,-0.64492 -0.33353,-0.37207 0.41903,1.24193 0.40911,1.32303 -0.17535,1.43414 -0.44954,0.0855 -0.39855,0.11826 0.22444,0.14437 0.44338,0.0186 0.80146,-0.0499 0.79574,-0.15226 z m -1.52347,-3.16361 c -0.15566,-0.34163 -0.32974,-0.57443 -0.38685,-0.51733 -0.11585,0.11585 0.38707,1.13849 0.55989,1.13849 0.0605,0 -0.0174,-0.27952 -0.17304,-0.62116 z M 89.04785,164.70132 c -0.616648,-1.22782 -1.176987,-2.2324 -1.245199,-2.2324 -0.06821,0 0.380507,1.00458 0.997155,2.2324 0.616648,1.22781 1.176987,2.23239 1.245199,2.23239 0.06821,0 -0.380507,-1.00458 -0.997155,-2.23239 z m 15.7508,0.49608 c -0.27839,-0.54569 -0.56198,-0.99217 -0.63019,-0.99217 -0.0682,0 0.10375,0.44648 0.38215,0.99217 0.27839,0.5457 0.56198,0.99218 0.63019,0.99218 0.0682,0 -0.10375,-0.44648 -0.38215,-0.99218 z m -2.72848,-5.20892 c -0.2784,-0.5457 -0.56198,-0.99218 -0.6302,-0.99218 -0.0682,0 0.10376,0.44648 0.38215,0.99218 0.2784,0.54569 0.56199,0.99217 0.6302,0.99217 0.0682,0 -0.10376,-0.44648 -0.38215,-0.99217 z M 79.532318,145.91197 c -2.983147,-5.96856 -5.499508,-11.09407 -5.591909,-11.39002 -0.129018,-0.41323 -0.04614,-0.57678 0.357141,-0.70477 0.752561,-0.23886 0.468764,-0.38778 -0.331246,-0.17382 l -0.670049,0.1792 1.550671,3.24853 c 2.256847,4.72792 9.847524,19.69281 9.988829,19.69281 0.06626,0 -2.320289,-4.88337 -5.303437,-10.85193 z m 19.809364,8.86758 c -0.278394,-0.5457 -0.561981,-0.99218 -0.630193,-0.99218 -0.06821,0 0.103754,0.44648 0.382149,0.99218 0.278395,0.5457 0.561981,0.99218 0.630194,0.99218 0.06821,0 -0.103755,-0.44648 -0.38215,-0.99218 z m -2.728485,-5.20893 c -0.278395,-0.54569 -0.561982,-0.99217 -0.630194,-0.99217 -0.06821,0 0.103755,0.44648 0.38215,0.99217 0.278394,0.5457 0.561981,0.99218 0.630193,0.99218 0.06821,0 -0.103754,-0.44648 -0.382149,-0.99218 z m -2.728486,-5.20892 c -0.278395,-0.5457 -0.561981,-0.99218 -0.630193,-0.99218 -0.06821,0 0.103754,0.44648 0.382149,0.99218 0.278395,0.54569 0.561981,0.99217 0.630193,0.99217 0.06821,0 -0.103754,-0.44648 -0.382149,-0.99217 z m -2.480441,-4.71284 c -0.278395,-0.5457 -0.561982,-0.99218 -0.630194,-0.99218 -0.06821,0 0.103755,0.44648 0.382149,0.99218 0.278395,0.54569 0.561982,0.99217 0.630194,0.99217 0.06821,0 -0.103755,-0.44648 -0.382149,-0.99217 z m -2.35642,-4.4648 c -0.345657,-0.68212 -0.684277,-1.24022 -0.752489,-1.24022 -0.06821,0 0.158788,0.5581 0.504445,1.24022 0.345657,0.68212 0.684277,1.24022 0.752489,1.24022 0.06821,0 -0.158788,-0.5581 -0.504445,-1.24022 z m -1.612287,-2.97653 c -0.278395,-0.54569 -0.561981,-0.99217 -0.630193,-0.99217 -0.06821,0 0.103754,0.44648 0.382149,0.99217 0.278395,0.5457 0.561981,0.99218 0.630193,0.99218 0.06821,0 -0.103754,-0.44648 -0.382149,-0.99218 z m -0.789641,-1.37392 c 0.309075,-0.25456 -0.501647,-0.2407 -1.318734,0.0226 l -0.992177,0.31966 1.116199,-0.13878 c 0.613909,-0.0763 1.15153,-0.16787 1.194712,-0.20344 z M 72.183993,129.0468 c -0.543968,-0.0554 -1.149144,-0.23202 -1.344838,-0.39238 -0.195692,-0.16036 -0.914708,-1.45947 -1.597809,-2.88689 -0.683101,-1.42743 -1.287267,-2.45953 -1.342588,-2.29357 -0.08987,0.26962 2.118061,4.66983 2.733181,5.44699 0.143039,0.18072 0.724219,0.29266 1.393246,0.26836 l 1.147839,-0.0417 z m 6.842864,-1.15948 c 1.850952,-0.46618 3.771253,-1.01719 4.267336,-1.22447 0.865694,-0.36171 0.89132,-0.40743 0.637077,-1.13676 -0.332332,-0.95332 -0.554701,-0.99149 -0.350134,-0.0601 0.18736,0.85303 0.04028,0.93074 -3.586897,1.89517 -3.913185,1.04048 -4.862244,1.3195 -4.584804,1.34793 0.138632,0.0142 1.766471,-0.3556 3.617422,-0.82177 z m -7.46612,-14.81472 c 1.381718,-0.0356 5.18708,-0.81238 7.013893,-1.43177 8.70565,-2.95168 13.861042,-8.59695 16.17259,-17.709348 C 96.211598,88.158731 96.14165,80.293744 94.57253,74.289223 92.155273,65.039161 85.209235,58.266548 75.653466,55.842518 71.882657,54.88597 70.018295,54.782058 54.161899,54.644667 L 38.62339,54.51003 38.535117,73.57726 c -0.04855,10.486976 -0.04901,23.74506 -10e-4,29.46241 l 0.08725,10.39518 16.28366,-0.17634 c 8.956014,-0.097 16.451092,-0.18064 16.655728,-0.18591 z M 113.65118,79.436139 c -0.0624,-0.238742 -0.11343,-0.04341 -0.11343,0.434078 0,0.477485 0.051,0.672819 0.11343,0.434077 0.0624,-0.238743 0.0624,-0.629412 0,-0.868155 z"
       id="path34"
       transform="scale(0.26458333)" />
  </g>
</svg>
